<?xml version="1.0" standalone="no"?><!DOCTYPE svg PUBLIC "-//W3C//DTD SVG 1.1//EN" "http://www.w3.org/Graphics/SVG/1.1/DTD/svg11.dtd"><svg t="1584038441619" class="icon" viewBox="0 0 1024 1024" version="1.1" xmlns="http://www.w3.org/2000/svg" p-id="3483" xmlns:xlink="http://www.w3.org/1999/xlink" width="32" height="32"><defs><style type="text/css"></style></defs><path d="M677.632 8.32h-524.8c-16 0-25.6 12.8-25.6 35.2v953.6c0 6.4 12.8 19.2 25.6 19.2h723.2c16 0 25.6-12.8 25.6-19.2v-755.2c0-12.8-3.2-16-3.2-19.2l-211.2-208c0-6.4-3.2-6.4-9.6-6.4z" fill="#E7EFF1" p-id="3484"></path><path d="M879.232 1013.12h-723.2c-16 0-25.6-12.8-25.6-25.6v-275.2h777.6v275.2c-3.2 12.8-16 25.6-28.8 25.6z" fill="#34B4C8" p-id="3485"></path><path d="M687.232 8.32v217.6h217.6z" fill="#CAD5D9" p-id="3486"></path><path d="M448 841.6c-3.2-12.8-6.4-19.2-12.8-28.8-12.8-19.2-35.2-25.6-60.8-25.6-25.6 0-44.8 6.4-60.8 22.4-16 16-25.6 41.6-25.6 67.2 0 28.8 9.6 51.2 25.6 67.2s35.2 22.4 60.8 22.4c25.6 0 44.8-6.4 57.6-22.4 9.6-9.6 12.8-19.2 16-38.4l-41.6-6.4c0 9.6-3.2 12.8-6.4 19.2-6.4 9.6-16 12.8-25.6 12.8-25.6 0-41.6-19.2-41.6-54.4s16-54.4 41.6-54.4c19.2 0 28.8 9.6 32 28.8l41.6-9.6z m19.2 70.4c0 9.6 3.2 12.8 3.2 19.2 3.2 12.8 12.8 19.2 22.4 25.6 9.6 6.4 28.8 9.6 44.8 9.6 25.6 0 41.6-6.4 54.4-19.2 9.6-9.6 16-22.4 16-38.4 0-19.2-6.4-32-22.4-41.6-6.4-6.4-19.2-9.6-32-12.8-25.6-6.4-25.6-6.4-28.8-6.4-6.4-3.2-9.6-6.4-9.6-12.8 0-9.6 9.6-16 22.4-16 16 0 22.4 6.4 25.6 19.2l44.8-3.2c-3.2-12.8-6.4-19.2-9.6-25.6-9.6-16-32-22.4-57.6-22.4-41.6 0-67.2 19.2-67.2 51.2 0 16 6.4 32 19.2 38.4 6.4 6.4 12.8 6.4 32 12.8 22.4 6.4 25.6 6.4 32 9.6 6.4 3.2 9.6 9.6 9.6 16 0 12.8-9.6 19.2-25.6 19.2-9.6 0-19.2-3.2-25.6-9.6-3.2-3.2-3.2-6.4-6.4-16l-41.6 3.2z m204.8-99.2c-3.2-6.4-3.2-16-6.4-22.4h-48c3.2 9.6 6.4 12.8 9.6 25.6l44.8 124.8c3.2 9.6 6.4 16 6.4 22.4h54.4c0-6.4 3.2-12.8 6.4-22.4l44.8-124.8c6.4-12.8 6.4-19.2 9.6-25.6h-48c0 6.4-3.2 12.8-3.2 22.4l-28.8 99.2c0 3.2 0 6.4-3.2 12.8-3.2-9.6-3.2-9.6-3.2-12.8l-35.2-99.2z" fill="#FFFFFF" p-id="3487"></path><path d="M336 278.4h176v51.2h-176z" fill="#CBE7BE" p-id="3488"></path><path d="M697.6 265.6h-355.2c-9.6 0-19.2 9.6-19.2 19.2v307.2c0 9.6 9.6 19.2 19.2 19.2h355.2c9.6 0 19.2-9.6 19.2-19.2v-307.2c0-9.6-6.4-19.2-19.2-19.2z m0 73.6v73.6h-105.6v-73.6h105.6z m-230.4 163.2v-70.4h105.6v70.4h-105.6z m105.6 19.2v70.4h-105.6v-70.4h105.6z m-124.8-19.2h-105.6v-70.4h105.6v70.4z m124.8-163.2v73.6h-105.6v-73.6h105.6z m19.2 92.8h105.6v70.4h-105.6v-70.4z m-121.6-147.2c9.6 0 19.2 9.6 19.2 19.2s-9.6 19.2-19.2 19.2-19.2-9.6-19.2-19.2c3.2-9.6 9.6-19.2 19.2-19.2z m-54.4 0c9.6 0 19.2 9.6 19.2 19.2s-9.6 19.2-19.2 19.2-19.2-9.6-19.2-19.2 9.6-19.2 19.2-19.2z m-54.4 0c9.6 0 19.2 9.6 19.2 19.2s-9.6 19.2-19.2 19.2-19.2-9.6-19.2-19.2 9.6-19.2 19.2-19.2z m0 54.4h89.6v73.6h-105.6v-73.6h16z m-19.2 182.4h105.6v70.4h-105.6v-70.4z m249.6 70.4v-70.4h105.6v70.4h-105.6z" fill="#64C5D4" p-id="3489"></path></svg>