<?xml version="1.0" standalone="no"?><!DOCTYPE svg PUBLIC "-//W3C//DTD SVG 1.1//EN" "http://www.w3.org/Graphics/SVG/1.1/DTD/svg11.dtd"><svg t="1584038753562" class="icon" viewBox="0 0 1024 1024" version="1.1" xmlns="http://www.w3.org/2000/svg" p-id="5462" xmlns:xlink="http://www.w3.org/1999/xlink" width="32" height="32"><defs><style type="text/css"></style></defs><path d="M789.76 222.66h178v734.51c0 38-28.86 66.83-66.83 66.83h-712c-38 0-66.83-28.85-66.83-66.83v-890c0-38 28.86-66.83 66.83-66.83h556.5v178h44.66v44.35h-0.31z m-66.83-22.17v-178h-534a44.73 44.73 0 0 0-44.66 44.66v890a44.73 44.73 0 0 0 44.66 44.66h712a44.73 44.73 0 0 0 44.65-44.66V244.84h-178v-44.66h-44.65v0.31z m0 0" fill="#9E9FA5" p-id="5463"></path><path d="M756.35 244.84h-33.42V0h22.18v22.17h22.17v22.18h22.17v22.17h22.18V88.7h22.17v22.17H856v22.18h22.17v22.17h22.17v22.18h22.18v22.18h22.17v22.17h22.18v22.18H722v-33.42c0.91 18.83 16.4 34.33 34.33 34.33z m-545.27 645.5h667.69V935H211.08v-44.66z m0-111.17h667.69v44.65H211.08v-44.65z m0-111.49h667.69v44.66H211.08v-44.66z m0 0" fill="#9E9FA5" p-id="5464"></path><path d="M102.22 111.48h356a44.73 44.73 0 0 1 44.66 44.66v356a44.73 44.73 0 0 1-44.66 44.66h-356a44.73 44.73 0 0 1-44.66-44.66V155.83c0-24.3 20.05-44.35 44.66-44.35z m0 0" fill="#1FB6D2" p-id="5465"></path><path d="M205.56 273.55h-44.73V426.5h-26.9V273.55H89.38v-31.76h116.18v31.77zM350.63 426.5h-32.88L280 357.15l-37.67 69.35h-33.18l55.15-97.11-49.85-87.61h32.8l32.6 59.75 32.78-59.75h32.8l-49.95 87.61zM471.08 273.55h-44.73V426.5h-26.9V273.55h-44.54v-31.76h116.17v31.77z" fill="#FFFFFF" p-id="5466"></path></svg>